<svg xmlns="http://www.w3.org/2000/svg" width="720" height="1400" viewBox="0 0 720 1400" fill="none">
  <defs>
    <linearGradient id="leftWall" x1="0" y1="0" x2="156" y2="0" gradientUnits="userSpaceOnUse">
      <stop offset="0" stop-color="#ff6b42" stop-opacity="0.92"/>
      <stop offset="0.18" stop-color="#ff925d" stop-opacity="0.3"/>
      <stop offset="0.7" stop-color="#ffd8af" stop-opacity="0.05"/>
      <stop offset="1" stop-color="#ffd8af" stop-opacity="0"/>
    </linearGradient>
    <radialGradient id="sourceGlow" cx="0" cy="0" r="1" gradientUnits="userSpaceOnUse" gradientTransform="translate(40 700) rotate(90) scale(190 72)">
      <stop offset="0" stop-color="#ff9a67" stop-opacity="0.42"/>
      <stop offset="0.48" stop-color="#ffc38d" stop-opacity="0.12"/>
      <stop offset="1" stop-color="#ffd4a7" stop-opacity="0"/>
    </radialGradient>
    <linearGradient id="trail" x1="96" y1="700" x2="330" y2="700" gradientUnits="userSpaceOnUse">
      <stop offset="0" stop-color="#ffd39e" stop-opacity="0"/>
      <stop offset="0.55" stop-color="#fff0da" stop-opacity="0.22"/>
      <stop offset="1" stop-color="#ffffff" stop-opacity="0"/>
    </linearGradient>
    <radialGradient id="focusGlow" cx="0" cy="0" r="1" gradientUnits="userSpaceOnUse" gradientTransform="translate(334 700) rotate(90) scale(82 64)">
      <stop offset="0" stop-color="#ffffff" stop-opacity="0.42"/>
      <stop offset="0.42" stop-color="#b8f3ff" stop-opacity="0.16"/>
      <stop offset="1" stop-color="#73dcff" stop-opacity="0"/>
    </radialGradient>
  </defs>

  <rect width="156" height="1400" fill="url(#leftWall)"/>
  <ellipse cx="40" cy="700" rx="44" ry="198" fill="url(#sourceGlow)"/>
  <path d="M98 700 C164 688, 232 688, 330 700" stroke="url(#trail)" stroke-width="12" stroke-linecap="round" opacity="0.56"/>

  <path d="M142 700 L160 692 L160 708 Z" fill="#ffd9ab" opacity="0.36"/>
  <path d="M204 700 L226 690 L226 710 Z" fill="#ffd9ab" opacity="0.54"/>
  <path d="M268 700 L294 688 L294 712 Z" fill="#ffe7c4" opacity="0.76"/>
  <path d="M314 700 L342 687 L342 713 Z" fill="#fffaf2" opacity="0.94"/>

  <circle cx="176" cy="680" r="2.8" fill="#ffe8c7" opacity="0.28"/>
  <circle cx="190" cy="722" r="2.2" fill="#ffd49a" opacity="0.24"/>
  <circle cx="236" cy="674" r="2.1" fill="#fff1dc" opacity="0.28"/>
  <circle cx="252" cy="726" r="2.4" fill="#ffd8a7" opacity="0.22"/>
  <circle cx="292" cy="668" r="2.2" fill="#fff5e5" opacity="0.28"/>

  <ellipse cx="334" cy="700" rx="82" ry="64" fill="url(#focusGlow)"/>
  <path d="M276 666 C300 654, 328 654, 350 668" stroke="#fff2db" stroke-width="3.2" stroke-linecap="round" opacity="0.54"/>
  <path d="M276 734 C300 746, 328 746, 350 732" stroke="#dffbff" stroke-width="3.2" stroke-linecap="round" opacity="0.48"/>
</svg>